<?xml version="1.0" encoding="utf-8"?>
<!-- Generator: Adobe Illustrator 24.1.3, SVG Export Plug-In . SVG Version: 6.00 Build 0)  -->
<svg version="1.1" id="Layer_1" xmlns="http://www.w3.org/2000/svg" xmlns:xlink="http://www.w3.org/1999/xlink" x="0px" y="0px"
	 viewBox="0 0 114 30" style="enable-background:new 0 0 114 30;" xml:space="preserve">
<style type="text/css">
	.st0{fill:#82ADB5;stroke:#82ADB5;stroke-width:0.5;stroke-miterlimit:10;}
	.st1{fill:#82ADB5;}
</style>
<g>
	<path class="st0" d="M13.14,28.76c-2.43,0-4.38-0.56-5.84-1.69c-1.46-1.12-2.27-2.68-2.44-4.65h1.28c0.17,1.62,0.87,2.88,2.1,3.78
		c1.23,0.9,2.87,1.34,4.93,1.34c2.07,0,3.73-0.45,4.99-1.35c1.26-0.9,1.89-2.11,1.89-3.61c0-0.52-0.08-1-0.23-1.43
		s-0.33-0.8-0.55-1.1c-0.22-0.3-0.52-0.58-0.92-0.83c-0.4-0.26-0.77-0.46-1.11-0.61c-0.34-0.15-0.8-0.3-1.36-0.44
		c-0.57-0.14-1.04-0.26-1.41-0.33c-0.37-0.08-0.89-0.17-1.54-0.27c-0.5-0.09-0.87-0.16-1.13-0.21c-0.26-0.05-0.62-0.12-1.09-0.22
		c-0.47-0.1-0.83-0.19-1.09-0.26c-0.25-0.08-0.58-0.19-0.98-0.32c-0.4-0.14-0.71-0.28-0.94-0.42c-0.23-0.14-0.49-0.32-0.78-0.52
		c-0.29-0.2-0.52-0.42-0.69-0.67c-0.16-0.24-0.33-0.51-0.49-0.8c-0.16-0.29-0.28-0.62-0.34-0.98c-0.07-0.36-0.1-0.75-0.1-1.17
		c0-1.73,0.71-3.12,2.13-4.18s3.27-1.59,5.56-1.59c2.3,0,4.15,0.54,5.53,1.63c1.39,1.09,2.13,2.56,2.24,4.43h-1.24
		c-0.1-1.53-0.73-2.73-1.88-3.59c-1.15-0.86-2.71-1.3-4.67-1.3c-1.94,0-3.49,0.42-4.66,1.26c-1.17,0.84-1.76,1.94-1.76,3.3
		c0,0.35,0.04,0.68,0.13,0.99c0.09,0.31,0.19,0.58,0.3,0.8c0.12,0.23,0.29,0.45,0.53,0.66c0.24,0.21,0.45,0.38,0.65,0.52
		c0.2,0.14,0.47,0.27,0.83,0.41s0.66,0.25,0.91,0.32s0.6,0.16,1.06,0.26c0.46,0.09,0.82,0.16,1.09,0.21
		c0.27,0.05,0.66,0.11,1.17,0.21c0.54,0.09,0.97,0.17,1.3,0.23c0.33,0.06,0.75,0.14,1.26,0.26c0.51,0.11,0.93,0.23,1.26,0.34
		s0.7,0.27,1.13,0.45c0.42,0.18,0.77,0.38,1.05,0.58c0.27,0.2,0.56,0.45,0.85,0.76c0.3,0.3,0.52,0.62,0.69,0.96
		c0.16,0.34,0.3,0.74,0.41,1.19c0.11,0.45,0.17,0.94,0.17,1.46c0,1.87-0.75,3.37-2.26,4.51C17.56,28.2,15.59,28.76,13.14,28.76z"/>
	<path class="st0" d="M44.84,17.41c0,0.25-0.01,0.43-0.02,0.55H24.55c0.1,2.77,1.06,5.07,2.87,6.89c1.81,1.82,4.06,2.73,6.74,2.73
		c1.9,0,3.59-0.46,5.07-1.39c1.48-0.93,2.67-2.24,3.54-3.94h1.37c-1.02,2.15-2.38,3.78-4.09,4.92c-1.71,1.13-3.67,1.7-5.9,1.7
		c-2.03,0-3.88-0.49-5.54-1.47c-1.67-0.98-2.98-2.33-3.92-4.06c-0.95-1.73-1.42-3.65-1.42-5.77c0-2.09,0.47-4,1.42-5.72
		c0.95-1.72,2.26-3.07,3.92-4.05c1.67-0.98,3.52-1.47,5.54-1.47c2.04,0,3.88,0.49,5.51,1.46c1.64,0.97,2.9,2.31,3.81,4
		C44.39,13.46,44.84,15.34,44.84,17.41z M34.17,7.71c-2.62,0-4.82,0.87-6.62,2.6c-1.8,1.73-2.79,3.93-2.97,6.6h18.99
		c-0.17-2.72-1.14-4.93-2.89-6.64C38.91,8.56,36.74,7.71,34.17,7.71z"/>
	<g>
		<path class="st1" d="M66.33,17.52c-1.27,0-2.31,0.42-3.16,1.29c-0.86,0.87-1.27,1.92-1.27,3.22c0,1.28,0.43,2.37,1.27,3.23
			c0.85,0.87,1.89,1.29,3.16,1.29c1.29,0,2.32-0.42,3.16-1.28c0.83-0.85,1.24-1.94,1.24-3.24c0-1.3-0.42-2.39-1.24-3.24
			C68.67,17.95,67.61,17.52,66.33,17.52z"/>
		<path class="st1" d="M87.41,17.51c-1.19,0-2.16,0.38-2.97,1.17c-0.74,0.71-1.18,1.61-1.31,2.68h8.47c-0.13-1.09-0.55-2-1.27-2.7
			C89.53,17.89,88.58,17.51,87.41,17.51z"/>
		<path class="st1" d="M54.88,17.52c-1.27,0-2.31,0.42-3.16,1.29c-0.84,0.86-1.27,1.94-1.27,3.22c0,1.28,0.43,2.36,1.27,3.22
			c0.85,0.87,1.88,1.3,3.16,1.3c1.29,0,2.32-0.42,3.16-1.28v0c0.83-0.85,1.24-1.94,1.24-3.24c0-1.3-0.42-2.39-1.24-3.24
			C57.2,17.94,56.17,17.52,54.88,17.52z"/>
		<path class="st1" d="M104.28,6.13H57.73h-5.04h-3.17l0-5.13h-1.7l0,5.13H42.6l0,1.66h5.22l0,9.9l-0.01,4.85
			c0,0.18,0.02,0.37,0.06,0.56c0.16,1.99,0.77,2.94,1.82,4c1.24,1.26,2.95,1.9,5.1,1.9h3.16v-0.02L104.28,29
			c2.68,0,4.86-2.16,4.86-4.83v-13.2C109.14,8.3,106.96,6.13,104.28,6.13z M59.77,24.91c-0.47,0.86-1.14,1.55-1.98,2.05
			c-0.84,0.5-1.81,0.75-2.87,0.75c-1.09,0-2.08-0.27-2.96-0.82c-1.12-0.69-2.49-1.96-2.66-4.06l0-6.67l0-0.27V7.77h1.16l0.03,10.73
			c0.4-0.53,0.9-0.97,1.48-1.33c0.87-0.54,1.87-0.81,2.95-0.81c1.06,0,2.03,0.25,2.87,0.74c0.84,0.49,1.51,1.18,1.98,2.04
			c0.47,0.86,0.71,1.83,0.71,2.89C60.47,23.09,60.23,24.06,59.77,24.91z M71.92,27.5h-1.09l-0.05-2.01
			c-0.4,0.55-0.89,1.01-1.48,1.38c-0.87,0.55-1.88,0.83-3,0.83c-1.58,0-2.92-0.55-3.98-1.63c-1.06-1.08-1.6-2.44-1.6-4.05
			c0-1.6,0.54-2.96,1.6-4.04c1.06-1.08,2.4-1.63,3.98-1.63c1.12,0,2.13,0.28,3,0.83c0.59,0.37,1.09,0.84,1.49,1.39l0.06-2.02h1.07
			V27.5z M81.36,27.71l-4.43-5.22H75.4v5.22h-1.18L74.2,16.55h1.18l0.02,4.78h1.54L81,16.57h1.51l-4.54,5.34l4.92,5.8H81.36z
			 M92.79,22.25l-0.03,0.25h-9.65c0.1,1.12,0.53,2.07,1.28,2.82c0.82,0.82,1.81,1.22,3.03,1.22c0.85,0,1.62-0.21,2.28-0.62
			c0.66-0.42,1.2-1.01,1.59-1.78l0.08-0.15h1.27l-0.19,0.4c-0.51,1.07-1.2,1.9-2.06,2.47c-0.86,0.57-1.86,0.86-2.98,0.86
			c-1.02,0-1.96-0.25-2.79-0.74c-0.84-0.49-1.51-1.18-1.98-2.05c-0.47-0.86-0.71-1.84-0.71-2.9c0-1.05,0.24-2.01,0.72-2.87
			c0.48-0.86,1.14-1.55,1.98-2.05c0.84-0.49,1.78-0.74,2.79-0.74c1.02,0,1.96,0.25,2.78,0.74c0.82,0.49,1.47,1.17,1.93,2.02
			c0.45,0.85,0.68,1.8,0.68,2.83C92.8,22.09,92.79,22.18,92.79,22.25z M96.16,18.75c-0.62,0.7-0.93,1.62-0.93,2.72v6.24h-1.18V16.58
			h1.04l0.07,1.69c0.29-0.41,0.64-0.75,1.05-1.03c0.68-0.46,1.48-0.69,2.39-0.69h1.18v1.16h-1.22
			C97.56,17.71,96.78,18.05,96.16,18.75z M106.57,26.83c-0.77,0.58-1.78,0.87-3.01,0.87c-1.22,0-2.22-0.29-2.96-0.87
			c-0.76-0.59-1.19-1.4-1.28-2.42l-0.03-0.3h1.17l0.03,0.25c0.07,0.7,0.36,1.23,0.89,1.61c0.54,0.39,1.27,0.59,2.19,0.59
			c0.92,0,1.67-0.2,2.23-0.6c0.53-0.38,0.79-0.87,0.79-1.5c0-0.22-0.03-0.42-0.09-0.59c-0.06-0.18-0.14-0.33-0.23-0.46
			c-0.08-0.11-0.2-0.22-0.36-0.33c-0.18-0.11-0.34-0.2-0.49-0.27c-0.15-0.07-0.35-0.13-0.61-0.2c-0.27-0.07-0.49-0.12-0.67-0.16
			c-0.18-0.04-0.42-0.08-0.72-0.13l-0.54-0.1c-0.12-0.02-0.3-0.06-0.53-0.1c-0.24-0.05-0.42-0.09-0.55-0.13
			c-0.13-0.04-0.28-0.09-0.48-0.16c-0.21-0.07-0.38-0.15-0.51-0.23c-0.11-0.07-0.24-0.16-0.39-0.26c-0.17-0.12-0.3-0.25-0.4-0.39
			c-0.08-0.12-0.17-0.26-0.25-0.41c-0.09-0.17-0.16-0.35-0.19-0.56c-0.03-0.19-0.05-0.39-0.05-0.61c0-0.92,0.38-1.66,1.13-2.22
			c0.73-0.54,1.68-0.82,2.83-0.82c1.16,0,2.11,0.28,2.82,0.84c0.73,0.57,1.12,1.35,1.18,2.33l0.02,0.3h-1.15l-0.02-0.26
			c-0.04-0.65-0.3-1.15-0.79-1.51c-0.5-0.37-1.19-0.56-2.07-0.56c-0.86,0-1.56,0.18-2.07,0.55c-0.49,0.35-0.72,0.79-0.72,1.35
			c0,0.14,0.02,0.28,0.05,0.4c0.03,0.13,0.08,0.24,0.13,0.33c0.04,0.08,0.1,0.16,0.19,0.23c0.1,0.09,0.2,0.17,0.29,0.23
			c0.07,0.05,0.19,0.11,0.34,0.16c0.17,0.06,0.31,0.11,0.42,0.15c0.11,0.04,0.27,0.07,0.48,0.11c0.22,0.04,0.39,0.08,0.51,0.1
			l1.18,0.21c0.16,0.03,0.36,0.07,0.61,0.12c0.26,0.06,0.47,0.11,0.64,0.17c0.16,0.06,0.35,0.13,0.56,0.22
			c0.23,0.1,0.41,0.2,0.56,0.31c0.14,0.1,0.29,0.24,0.44,0.39c0.16,0.16,0.29,0.34,0.38,0.53c0.09,0.18,0.16,0.39,0.22,0.62
			c0.06,0.24,0.09,0.5,0.09,0.77C107.76,25.43,107.36,26.24,106.57,26.83z"/>
	</g>
</g>
</svg>
